<svg id="Layer_35" enable-background="new 0 0 64 64" height="512" viewBox="0 0 64 64" width="512" xmlns="http://www.w3.org/2000/svg"><path d="m49 56.62c0 2.11-1.06 4.08-2.81 5.26l-.19.12h-28l-.19-.12c-1.75-1.18-2.81-3.15-2.81-5.26 0-1.68.67-3.29 1.85-4.47l1.15-1.15-.89-3.55 5.83-2.38c1.55 3.54 5.07 5.93 9.06 5.93s7.51-2.39 9.06-5.93l5.83 2.38-.89 3.55 1.15 1.15c1.18 1.18 1.85 2.79 1.85 4.47z" fill="#5cd6b3"/><path d="m43 55v2c0 .55-.45 1-1 1h-4c-.55 0-1-.45-1-1v-2c0-.55.45-1 1-1h4c.55 0 1 .45 1 1z" fill="#fc6e51"/><path d="m55.84 43.23 2.16 3.77c-3.86 0-7.36-1.57-9.9-4.1-2.53-2.54-4.1-6.04-4.1-9.9v-1.13c1.73-.44 3-2.01 3-3.87 0-.73-.2-1.4-.54-1.99.96-1.06 1.54-2.47 1.54-4.01 0-4.42-1.79-8.42-4.68-11.32-2.9-2.89-6.9-4.68-11.32-4.68-1.24 0-2.46.14-3.62.41 2.72-2.72 6.47-4.41 10.62-4.41 4.14 0 7.89 1.68 10.6 4.4 2.72 2.71 4.4 6.46 4.4 10.6v19.28c0 2.44.64 4.83 1.84 6.95z" fill="#b27946"/><path d="m28.38 6.41c1.16-.27 2.38-.41 3.62-.41 4.42 0 8.42 1.79 11.32 4.68 2.89 2.9 4.68 6.9 4.68 11.32 0 1.54-.58 2.95-1.54 4.01-.53-.91-1.41-1.6-2.46-1.87h-.01c-.08-3.67-2.55-6.87-6.1-7.88l-.89-.26-1.69.75c-2.41 1.07-4.92 1.88-7.49 2.43-2.56.54-5.18.82-7.82.82v4.14c-1.05.27-1.93.96-2.46 1.87-.96-1.06-1.54-2.47-1.54-4.01 0-4.42 1.79-8.42 4.68-11.32 2.08-2.08 4.73-3.58 7.7-4.27z" fill="#b27946"/><g fill="#f0d0b4"><path d="m58 62h-12l.19-.12c1.75-1.18 2.81-3.15 2.81-5.26 0-1.68-.67-3.29-1.85-4.47l-1.15-1.15.89-3.55 1.85.76c2.8 1.15 5.12 3.08 6.73 5.49 1.61 2.4 2.53 5.28 2.53 8.3z"/><path d="m15 56.62c0 2.11 1.06 4.08 2.81 5.26l.19.12h-12c0-6.05 3.66-11.5 9.26-13.79l1.85-.76.89 3.55-1.15 1.15c-1.18 1.18-1.85 2.79-1.85 4.47z"/><path d="m38.49 44.02 2.57 1.05c-1.55 3.54-5.07 5.93-9.06 5.93s-7.51-2.39-9.06-5.93l2.57-1.05c1.51-.62 2.49-2.08 2.49-3.71v-1.24c1.23.8 2.57 1.45 4 1.93 1.43-.48 2.77-1.13 4-1.93v1.24c0 1.63.98 3.09 2.49 3.71z"/><path d="m46.46 26.01c.34.59.54 1.26.54 1.99 0 1.86-1.27 3.43-3 3.87-.32.09-.65.13-1 .13h-.76c1.73-6.49 1.76-7.07 1.76-7.65 0-.07 0-.14-.01-.21h.01c1.05.27 1.93.96 2.46 1.87z"/><path d="m42.24 32-1.55 2.61c-1.27 1.75-2.85 3.27-4.69 4.46-1.23.8-2.57 1.45-4 1.93-1.43-.48-2.77-1.13-4-1.93-1.84-1.19-3.42-2.71-4.69-4.46-.59-.82-1.11-1.7-1.55-2.61-1.14-2.34-1.76-4.94-1.76-7.65v-.21-4.14c2.64 0 5.26-.28 7.82-.82 2.57-.55 5.08-1.36 7.49-2.43l1.69-.75.89.26c3.55 1.01 6.02 4.21 6.1 7.88.01.07.01.14.01.21 0 .58-.03 1.16-1.76 7.65z"/><path d="m20 24.35c0 2.71.62 5.31 1.76 7.65h-.76c-2.21 0-4-1.79-4-4 0-.73.2-1.4.54-1.99.53-.91 1.41-1.6 2.46-1.87z"/></g><circle cx="26" cy="24" r="1"/><circle cx="38" cy="24" r="1"/><path d="m36 32h-2c0 1.103-.897 2-2 2s-2-.897-2-2h-2c0 2.206 1.794 4 4 4s4-1.794 4-4z"/><path d="m49.123 47.288-10.259-4.197c-1.133-.463-1.864-1.553-1.864-2.777v-.718c2.469-1.706 4.473-3.972 5.857-6.596h.143c0 8.271 6.729 15 15 15h1.724l-3.011-5.268c-1.12-1.961-1.713-4.192-1.713-6.45v-19.282c0-8.822-7.178-16-16-16-4.198 0-8.14 1.613-11.142 4.532-7.375 1.856-12.858 8.525-12.858 16.468 0 1.506.483 2.958 1.369 4.157-.231.576-.369 1.195-.369 1.843 0 2.757 2.243 5 5 5h.143c1.383 2.625 3.388 4.89 5.857 6.596v.718c0 1.224-.731 2.313-1.864 2.776l-10.259 4.197c-6 2.455-9.877 8.231-9.877 14.713v1h12.696 28.607 12.697v-1c0-6.482-3.877-12.258-9.877-14.712zm-4.178-21.549c.65.555 1.055 1.368 1.055 2.261 0 1.374-.933 2.522-2.196 2.877.612-1.628 1.008-3.351 1.141-5.138zm-5.945-22.739c7.72 0 14 6.28 14 14v19.282c0 2.605.684 5.179 1.977 7.442l1.229 2.152c-6.322-.876-11.206-6.316-11.206-12.876v-.424c1.763-.774 3-2.531 3-4.576 0-.648-.138-1.267-.369-1.843.886-1.199 1.369-2.652 1.369-4.157 0-9.374-7.626-17-17-17-.07 0-.137.01-.207.01 2.156-1.3 4.623-2.01 7.207-2.01zm-7 4c8.271 0 15 6.729 15 15 0 .828-.221 1.627-.604 2.345-.418-.387-.908-.698-1.448-.927-.382-3.794-3.06-7.061-6.78-8.125l-1.242-.354-2.021.898c-4.722 2.099-9.737 3.163-14.905 3.163h-1v4.436c-.52.227-.991.534-1.396.909-.384-.718-.604-1.516-.604-2.345 0-8.271 6.729-15 15-15zm-14 21c0-.893.405-1.706 1.055-2.261.133 1.787.529 3.51 1.14 5.137-1.262-.354-2.195-1.502-2.195-2.876zm3-3.649v-3.363c5.097-.129 10.043-1.245 14.717-3.322l1.357-.604.545.155c3.168.905 5.381 3.839 5.381 7.134 0 7.023-4.406 13.247-11 15.592-6.594-2.345-11-8.569-11-15.592zm4.894 20.591c1.736-.711 2.894-2.308 3.071-4.147.864.45 1.772.837 2.719 1.152l.316.107.316-.105c.947-.316 1.855-.702 2.719-1.152.176 1.838 1.335 3.436 3.071 4.147l1.556.637c-1.579 2.707-4.478 4.419-7.662 4.419s-6.083-1.712-7.662-4.421zm-10.259 4.198.789-.323.469 1.877-.749.749c-1.382 1.381-2.144 3.22-2.144 5.175 0 1.608.532 3.134 1.467 4.382h-8.432c.373-5.255 3.665-9.842 8.6-11.86zm2.67 11.86c-1.445-.993-2.305-2.625-2.305-4.382 0-1.421.553-2.757 1.558-3.762l1.55-1.55-.814-3.255 4.169-1.706c1.898 3.463 5.541 5.655 9.537 5.655s7.639-2.192 9.538-5.654l4.169 1.706-.814 3.255 1.55 1.55c1.004 1.004 1.557 2.34 1.557 3.761 0 1.756-.859 3.388-2.305 4.382zm30.228 0c.935-1.248 1.467-2.774 1.467-4.382 0-1.955-.762-3.794-2.144-5.176l-.749-.749.469-1.877.789.323c4.935 2.019 8.227 6.605 8.6 11.86h-8.432z"/><path d="m42 53h-4c-1.103 0-2 .897-2 2v2c0 1.103.897 2 2 2h4c1.103 0 2-.897 2-2v-2c0-1.103-.897-2-2-2zm-4 4v-2h4l.002 2z"/></svg>