<?xml version="1.0" encoding="iso-8859-1"?>
<!-- Generator: Adobe Illustrator 19.0.0, SVG Export Plug-In . SVG Version: 6.00 Build 0)  -->
<svg version="1.1" id="Capa_1" xmlns="http://www.w3.org/2000/svg" xmlns:xlink="http://www.w3.org/1999/xlink" x="0px" y="0px"
	 viewBox="0 0 512.002 512.002" style="enable-background:new 0 0 512.002 512.002;" xml:space="preserve">
<g>
	<path style="fill:#FA9EB0;" d="M16.462,363.427C13.069,402.492,26.385,487.595,256,487.595s242.931-85.103,239.538-124.168
		l-66.859-32.354H83.322L16.462,363.427z"/>
	<path style="fill:#FA9EB0;" d="M428.678,180.929H83.322c-41.462,0-75.072,33.612-75.072,75.072l0,0
		c0,41.462,33.612,75.072,75.072,75.072h345.357c41.462,0,75.072-33.612,75.072-75.072l0,0
		C503.751,214.539,470.14,180.929,428.678,180.929z"/>
</g>
<path style="fill:#ED6883;" d="M49.456,256.001L49.456,256.001c0-41.462,33.612-75.073,75.072-75.073H83.321
	c-41.462,0-75.072,33.611-75.072,75.073l0,0c0,41.462,33.612,75.073,75.072,75.073h41.207
	C83.068,331.074,49.456,297.463,49.456,256.001z"/>
<path style="fill:#FA9EB0;" d="M16.462,148.575C13.069,109.509,26.386,24.406,256,24.406s242.931,85.103,239.538,124.168
	l-66.859,32.354H83.322L16.462,148.575z"/>
<g>
	<path style="fill:#ED6883;" d="M276.604,24.645c-6.667-0.158-13.531-0.239-20.604-0.239c-229.614,0-242.931,85.103-239.538,124.169
		l66.859,32.354h41.207L57.67,148.575C54.38,110.713,66.791,29.605,276.604,24.645z"/>
	<path style="fill:#ED6883;" d="M276.604,487.357c-6.667,0.158-13.531,0.239-20.604,0.239
		c-229.614,0-242.931-85.103-239.538-124.169l66.859-32.354h41.207L57.67,363.427C54.38,401.29,66.791,482.397,276.604,487.357z"/>
</g>
<g>
	<path style="fill:#FA5A79;" d="M458.677,136.13c-16.229,0-30.755,6.1-40.536,15.71c-9.781-9.611-24.306-15.71-40.536-15.71
		s-30.755,6.1-40.536,15.71c-9.781-9.611-24.306-15.71-40.536-15.71s-30.755,6.1-40.536,15.71
		c-9.78-9.611-24.306-15.71-40.536-15.71s-30.755,6.1-40.536,15.71c-9.781-9.611-24.306-15.71-40.536-15.71
		s-30.755,6.1-40.536,15.71c-9.781-9.611-24.306-15.71-40.536-15.71C23.873,136.13,0,156.187,0,180.929s23.873,44.798,53.323,44.798
		c16.229,0,30.755-6.1,40.536-15.71c9.781,9.611,24.306,15.71,40.536,15.71s30.755-6.1,40.536-15.71
		c9.781,9.611,24.306,15.71,40.536,15.71s30.755-6.1,40.536-15.71c9.78,9.611,24.306,15.71,40.536,15.71
		c16.229,0,30.755-6.1,40.536-15.71c9.781,9.611,24.306,15.71,40.536,15.71s30.755-6.1,40.536-15.71
		c9.781,9.611,24.306,15.71,40.536,15.71c29.45,0,53.323-20.057,53.323-44.798S488.127,136.13,458.677,136.13z"/>
	<path style="fill:#FA5A79;" d="M458.677,375.872c-16.229,0-30.755-6.1-40.536-15.71c-9.781,9.611-24.306,15.71-40.536,15.71
		s-30.755-6.1-40.536-15.71c-9.781,9.611-24.306,15.71-40.536,15.71s-30.755-6.1-40.536-15.71
		c-9.78,9.611-24.306,15.71-40.536,15.71s-30.755-6.1-40.536-15.71c-9.781,9.611-24.306,15.71-40.536,15.71
		s-30.755-6.1-40.536-15.71c-9.781,9.611-24.306,15.71-40.536,15.71C23.873,375.872,0,355.815,0,331.073
		s23.873-44.798,53.323-44.798c16.229,0,30.755,6.1,40.536,15.71c9.781-9.611,24.306-15.71,40.536-15.71s30.755,6.1,40.536,15.71
		c9.781-9.611,24.306-15.71,40.536-15.71s30.755,6.1,40.536,15.71c9.78-9.611,24.306-15.71,40.536-15.71
		c16.229,0,30.755,6.1,40.536,15.71c9.781-9.611,24.306-15.71,40.536-15.71s30.755,6.1,40.536,15.71
		c9.781-9.611,24.306-15.71,40.536-15.71c29.45,0,53.323,20.057,53.323,44.798S488.127,375.872,458.677,375.872z"/>
</g>
<g>
	<path style="fill:#3B484A;" d="M172.078,91.212c-4.268,0-7.726-3.459-7.726-7.726V68.298c0-4.267,3.458-7.726,7.726-7.726
		s7.726,3.459,7.726,7.726v15.188C179.805,87.753,176.346,91.212,172.078,91.212z"/>
	<path style="fill:#3B484A;" d="M339.922,91.212c-4.268,0-7.726-3.459-7.726-7.726V68.298c0-4.267,3.458-7.726,7.726-7.726
		c4.268,0,7.726,3.459,7.726,7.726v15.188C347.648,87.753,344.19,91.212,339.922,91.212z"/>
	<path style="fill:#3B484A;" d="M256,99.32c-10.302,0-19.972-4.303-26.53-11.806c-2.809-3.213-2.481-8.094,0.732-10.902
		c3.211-2.807,8.092-2.481,10.901,0.732c3.624,4.145,9.053,6.523,14.896,6.523c5.843,0,11.272-2.378,14.896-6.523
		c2.808-3.213,7.688-3.541,10.902-0.732c3.212,2.808,3.541,7.689,0.731,10.902C275.972,95.017,266.302,99.32,256,99.32z"/>
</g>
<g>
</g>
<g>
</g>
<g>
</g>
<g>
</g>
<g>
</g>
<g>
</g>
<g>
</g>
<g>
</g>
<g>
</g>
<g>
</g>
<g>
</g>
<g>
</g>
<g>
</g>
<g>
</g>
<g>
</g>
</svg>
