<?xml version="1.0" encoding="iso-8859-1"?>
<!-- Generator: Adobe Illustrator 22.1.0, SVG Export Plug-In . SVG Version: 6.00 Build 0)  -->
<svg xmlns="http://www.w3.org/2000/svg" xmlns:xlink="http://www.w3.org/1999/xlink" version="1.1" id="Layer_1_1_" x="0px" y="0px" viewBox="0 0 64 64" style="enable-background:new 0 0 64 64;" xml:space="preserve" width="512" height="512">
<g>
	<g>
		<path style="fill:#FCD770;" d="M54,6v10h-6H10V6c0-2.21-1.79-4-4-4h44C52.21,2,54,3.79,54,6z"/>
		<path style="fill:#E6E9ED;" d="M10,16V6c0-2.21-1.79-4-4-4C4.9,2,3.9,2.45,3.17,3.17C2.45,3.9,2,4.9,2,6v56h46v-7l-2,1V39.94    l0.06-0.16c-0.41-0.14-0.8-0.37-1.13-0.71c-1.13-1.12-1.16-2.91-0.13-4.09C43.24,34.88,42,33.59,42,32c0-0.8,0.31-1.52,0.82-2.05    c0.5-0.53,1.2-0.88,1.98-0.93c-1.03-1.18-1-2.97,0.13-4.09c0.81-0.82,1.98-1.06,3.01-0.73L48,24v-8H10z"/>
		<path style="fill:#FCD770;" d="M8,46h32c1.1,0,2,0.9,2,2v8c0,1.1-0.9,2-2,2H8c-1.1,0-2-0.9-2-2v-8C6,46.9,6.9,46,8,46z"/>
		<path style="fill:#FF826E;" d="M54.98,39.2c0.83,0.73,1.97,0.93,2.96,0.58L58,39.94V56l-6-3l-4,2l-2,1V39.94l0.06-0.16    c0.99,0.35,2.13,0.15,2.96-0.58c0.1,1.56,1.39,2.8,2.98,2.8S54.88,40.76,54.98,39.2z"/>
		<path style="fill:#FCD770;" d="M49.02,24.8c0.1-1.56,1.39-2.8,2.98-2.8s2.88,1.24,2.98,2.8c1.18-1.03,2.97-1,4.09,0.13    c1.13,1.12,1.16,2.91,0.13,4.09c1.56,0.1,2.8,1.39,2.8,2.98s-1.24,2.88-2.8,2.98c1.03,1.18,1,2.97-0.13,4.09    c-0.33,0.34-0.72,0.57-1.13,0.71c-0.99,0.35-2.13,0.15-2.96-0.58C54.88,40.76,53.59,42,52,42s-2.88-1.24-2.98-2.8    c-0.83,0.73-1.97,0.93-2.96,0.58c-0.41-0.14-0.8-0.37-1.13-0.71c-1.13-1.12-1.16-2.91-0.13-4.09C43.24,34.88,42,33.59,42,32    c0-0.8,0.31-1.52,0.82-2.05c0.5-0.53,1.2-0.88,1.98-0.93c-1.03-1.18-1-2.97,0.13-4.09c0.81-0.82,1.98-1.06,3.01-0.73    C48.33,24.31,48.7,24.52,49.02,24.8z"/>
		<path style="fill:#FF826E;" d="M52,26c3.31,0,6,2.69,6,6s-2.69,6-6,6s-6-2.69-6-6S48.69,26,52,26z"/>
		<circle style="fill:#FF826E;" cx="52" cy="32" r="2"/>
	</g>
	<g>
		<path d="M63,32c0-1.58-0.936-2.963-2.296-3.605c0.508-1.416,0.191-3.056-0.926-4.173c-1.118-1.118-2.758-1.434-4.172-0.926    C54.963,21.936,53.58,21,52,21c-1.189,0-2.266,0.53-3,1.372V17h6V6c0-2.757-2.243-5-5-5H6C3.243,1,1,3.243,1,6v57h48v-7.382l3-1.5    l7,3.5V40.373c0.277-0.165,0.541-0.358,0.778-0.594c1.117-1.117,1.434-2.757,0.926-4.173C62.064,34.963,63,33.58,63,32z     M55.64,25.557c0.789-0.693,1.986-0.658,2.724,0.079c0.738,0.738,0.773,1.935,0.08,2.724l-0.282,0.322    c-0.65-1.202-1.641-2.193-2.843-2.843L55.64,25.557z M58.443,35.64c0.693,0.79,0.658,1.987-0.08,2.725    c-0.737,0.736-1.934,0.772-2.724,0.079l-0.321-0.282c1.202-0.65,2.193-1.641,2.843-2.843L58.443,35.64z M48.36,25.557l0.322,0.282    c-1.202,0.65-2.193,1.641-2.843,2.843l-0.282-0.322c-0.693-0.79-0.658-1.986,0.08-2.724C46.374,24.898,47.57,24.863,48.36,25.557z     M52,27c2.757,0,5,2.243,5,5s-2.243,5-5,5s-5-2.243-5-5S49.243,27,52,27z M45.297,29.99C45.106,30.627,45,31.301,45,32    c0,0.699,0.106,1.373,0.298,2.01l-0.427-0.028C43.821,33.914,43,33.043,43,32s0.821-1.914,1.87-1.982L45.297,29.99z     M45.636,38.364c-0.737-0.737-0.772-1.935-0.08-2.725l0.282-0.321c0.65,1.202,1.641,2.193,2.843,2.843l-0.321,0.282    C47.571,39.138,46.375,39.104,45.636,38.364z M52,39c0.699,0,1.373-0.106,2.01-0.297l-0.028,0.427C53.914,40.179,53.043,41,52,41    s-1.914-0.821-1.982-1.87l-0.028-0.427C50.627,38.894,51.301,39,52,39z M52,23c1.043,0,1.914,0.821,1.982,1.87l0.028,0.427    C53.373,25.106,52.699,25,52,25s-1.373,0.106-2.01,0.297l0.028-0.427C50.086,23.821,50.957,23,52,23z M50,3c1.654,0,3,1.346,3,3v9    H11V6c0-1.125-0.374-2.164-1.002-3H50z M47,61H3V6c0-1.654,1.346-3,3-3s3,1.346,3,3v11h38v6.07    c-1.011,0.01-2.016,0.39-2.778,1.152c-1.118,1.117-1.434,2.757-0.926,4.173C41.936,29.037,41,30.42,41,32s0.936,2.963,2.296,3.605    c-0.508,1.416-0.191,3.056,0.926,4.173c0.237,0.237,0.501,0.43,0.778,0.595v17.245l2-1V61z M57,54.382l-4-2V45h-2v7.382l-4,2    V40.93c0.471,0.004,0.944-0.064,1.395-0.226C49.037,42.064,50.42,43,52,43s2.963-0.936,3.605-2.296    c0.45,0.162,0.923,0.23,1.395,0.226V54.382z M59.13,33.982l-0.427,0.028C58.894,33.373,59,32.699,59,32    c0-0.699-0.106-1.373-0.297-2.01l0.427,0.028C60.179,30.086,61,30.957,61,32S60.179,33.914,59.13,33.982z"/>
		<path d="M52,35c1.654,0,3-1.346,3-3s-1.346-3-3-3s-3,1.346-3,3S50.346,35,52,35z M52,31c0.551,0,1,0.449,1,1s-0.449,1-1,1    s-1-0.449-1-1S51.449,31,52,31z"/>
		<rect x="5" y="19" width="2" height="2"/>
		<rect x="9" y="19" width="36" height="2"/>
		<rect x="5" y="23" width="36" height="2"/>
		<rect x="5" y="27" width="36" height="2"/>
		<path d="M40,45H8c-1.654,0-3,1.346-3,3v8c0,1.654,1.346,3,3,3h32c1.654,0,3-1.346,3-3v-8C43,46.346,41.654,45,40,45z M41,56    c0,0.552-0.449,1-1,1H8c-0.551,0-1-0.448-1-1v-8c0-0.552,0.449-1,1-1h32c0.551,0,1,0.448,1,1V56z"/>
		<rect x="11" y="49" width="2" height="2"/>
		<rect x="11" y="53" width="2" height="2"/>
		<rect x="13" y="51" width="2" height="2"/>
		<rect x="9" y="51" width="2" height="2"/>
		<rect x="19" y="49" width="2" height="2"/>
		<rect x="19" y="53" width="2" height="2"/>
		<rect x="21" y="51" width="2" height="2"/>
		<rect x="17" y="51" width="2" height="2"/>
		<rect x="27" y="49" width="2" height="2"/>
		<rect x="27" y="53" width="2" height="2"/>
		<rect x="29" y="51" width="2" height="2"/>
		<rect x="25" y="51" width="2" height="2"/>
		<rect x="35" y="49" width="2" height="2"/>
		<rect x="35" y="53" width="2" height="2"/>
		<rect x="37" y="51" width="2" height="2"/>
		<rect x="33" y="51" width="2" height="2"/>
		<rect x="5" y="31" width="34" height="2"/>
		<rect x="9" y="35" width="30" height="2"/>
		<rect x="5" y="35" width="2" height="2"/>
		<rect x="5" y="39" width="30" height="2"/>
		<rect x="37" y="39" width="2" height="2"/>
	</g>
</g>
</svg>
