<svg id="Layer_3" enable-background="new 0 0 64 64" height="512" viewBox="0 0 64 64" width="512" xmlns="http://www.w3.org/2000/svg"><path d="m56 54v4c0 2.21-1.79 4-4 4h-46c-2.21 0-4-1.79-4-4v-4h2 17l1 4h14l1-4h17z" fill="#969faa"/><path d="m37 54-1 4h-14l-1-4z" fill="#e6e9ed"/><path d="m22 16h-14c-2.21 0-4 1.79-4 4v34h17 16 17v-38z" fill="#ccd1d9"/><path d="m9 20c-.55 0-1 .45-1 1v28c0 .55.45 1 1 1h40c.55 0 1-.45 1-1v-29z" fill="#69d6f4"/><path d="m23 35 7.78 7.78c-1.99 1.99-4.74 3.22-7.78 3.22s-5.79-1.23-7.78-3.22z" fill="#fcd770"/><path d="m33.59 32c.27.95.41 1.96.41 3 0 3.04-1.23 5.79-3.22 7.78l-7.78-7.78v-3z" fill="#e6e9ed"/><path d="m23 32v3l-7.78 7.78c-1.99-1.99-3.22-4.74-3.22-7.78 0-5.74 4.39-10.45 10-10.96v7.96z" fill="#ff826e"/><path d="m22 10h40v22h-8-4-16.41-10.59-1v-7.96-4.04-4z" fill="#e6e9ed"/><path d="m22 2h40v8h-40z" fill="#b4dd7f"/><path d="m48 14v4h-4v6h-10v-10z" fill="#fcd770"/><path d="m58 18v10h-14v-4-6h4z" fill="#ff826e"/><path d="m9 57h2v2h-2z"/><path d="m13 57h2v2h-2z"/><path d="m63 33v-32h-42v14h-13c-2.757 0-5 2.243-5 5v33h-2v5c0 2.757 2.243 5 5 5h46c2.757 0 5-2.243 5-5v-5h-2v-20zm-40-2v-20h38v20zm9.776 2c.133.657.224 1.323.224 2 0 2.398-.85 4.6-2.262 6.324l-6.738-6.738v-1.586zm-10.776 1.586-6.738 6.738c-1.412-1.724-2.262-3.926-2.262-6.324 0-4.838 3.371-8.869 8-9.796v7.796h1zm1 1.828 6.324 6.324c-1.724 1.412-3.926 2.262-6.324 2.262s-4.6-.85-6.324-2.262zm-2-13.24c-5.76.957-10 5.883-10 11.826 0 6.617 5.383 12 12 12s12-5.383 12-12c0-.673-.063-1.341-.173-2h14.173v16h-40v-28h12zm40-20.174v6h-38v-6zm-6 55c0 1.654-1.346 3-3 3h-46c-1.654 0-3-1.346-3-3v-3h17.219l.999 4h15.562l.999-4h17.221zm-32.719-3h13.439l-.501 2h-12.438zm30.719-2h-48v-33c0-1.654 1.346-3 3-3h13v2h-12c-1.103 0-2 .897-2 2v28c0 1.103.897 2 2 2h40c1.103 0 2-.897 2-2v-16h2z"/><path d="m25 5h2v2h-2z"/><path d="m29 5h2v2h-2z"/><path d="m33 5h2v2h-2z"/><path d="m37 37h10v2h-10z"/><path d="m37 41h10v2h-10z"/><path d="m37 45h10v2h-10z"/><path d="m28 17c.552 0 1 .449 1 1h2c0-1.302-.839-2.402-2-2.816v-2.184h-2v2h-2v3c0 1.654 1.346 3 3 3 .552 0 1 .449 1 1v1h-1c-.552 0-1-.449-1-1h-2c0 1.302.839 2.402 2 2.816v2.184h2v-2h2v-3c0-1.654-1.346-3-3-3-.552 0-1-.449-1-1v-1z"/><path d="m49 13h-16v12h10v4h16v-12h-10zm-14 10v-8h12v2h-4v6zm22 4h-12v-8h12z"/></svg>